<?xml version="1.0" standalone="no"?>
<!DOCTYPE svg PUBLIC "-//W3C//DTD SVG 1.1//EN" "http://www.w3.org/Graphics/SVG/1.1/DTD/svg11.dtd" >
<svg xmlns="http://www.w3.org/2000/svg">
<metadata>
This is a custom SVG font generated by IcoMoon.
<iconset grid="14"></iconset>
</metadata>
<defs>
<font id="formsnap" horiz-adv-x="448" >
<font-face units-per-em="448" ascent="384" descent="-64" />
<missing-glyph horiz-adv-x="448" />
<glyph class="hidden" unicode="&#xf000;" d="M0,384L 448 -64L0 -64 z" horiz-adv-x="0" />
<glyph unicode="&#xf118;" d="M 144.156,155.187q 2.625-3.938 4.594-4.375q 2.188-2.625 5.688-3.5q 4.375-1.313 8.094-1.313q 2.844-0.656 10.719-0.656q 11.594,0 18.813,1.969q 6.125,1.75 9.844,7.875q 1.531,0.656 2.188,2.844q 0.219,0.438 0.984,2.297t 0.984,2.953q 1.531,5.688 1.531,7.219q 0.438,3.281 0.438,10.938t-0.438,9.844q0,3.5 -1.531,8.094q-0.219,1.094 -0.984,2.734t-0.984,2.078q-0.656,2.188 -2.188,2.844q-2.188,3.938 -3.5,5.25q-2.844,1.969 -6.344,2.625q-0.875,0.656 -3.609,1.094t-4.047,0.875q-1.531,0 -5.141,0.219 t-5.359,0.219q-2.625,0 -3.719-0.438l-3.5,0 l-0.875,0 q-0.438,0.438 0,1.75q 0.875,3.719 2.406,5.688q 1.094,1.75 1.094,5.469q0,4.375 -1.75,5.906q-2.406,2.625 -6.781,2.625q-2.406,0 -3.938-0.656l-3.281-1.313q-3.063-1.969 -3.5-2.188q-0.656-0.875 -1.531-2.406t-1.75-2.625q-0.656-0.875 -3.719-7.875q-0.438-1.969 -1.422-5.469t-1.203-5.25q-0.219-1.531 -0.875-5.797t-0.875-6.234q-0.656-4.813 -0.656-11.813l0-9.188 q0-1.531 0.328-4.266t 0.328-3.828q 0.656-3.938 1.75-7.875 q 2.188-4.813 3.719-6.344zM 276.063,155.187q 2.625,3.5 3.281,6.344q 1.094,3.938 1.75,7.875q 0.438,2.406 0.438,8.094q 0.656,2.406 0.656,9.188q0,1.75 -0.328,5.469t-0.328,6.344l-1.531,12.031q-0.875,1.969 -1.859,5.359t-1.641,5.359q-3.063,7 -3.719,7.875q-0.656,1.75 -3.063,5.031q-0.219,0.438 -3.063,2.188q-0.438,0.219 -1.313,0.547t-1.531,0.547t-1.094,0.219q-1.531,0.656 -3.719,0.656q-4.594,0 -6.563-2.625q-2.406-1.313 -2.406-5.906q0-3.063 1.531-5.469q 0.438-0.875 1.313-2.844t 1.531-2.844l0-1.75 l-1.969,0  l-2.844,0 q-1.313,0.438 -3.281,0.438q-2.188,0 -5.688-0.219t-4.813-0.219q-1.531-0.438 -4.266-0.875t-4.047-1.094q-2.625-0.656 -5.688-2.625l-4.375-5.25q0-0.219 -0.219-0.656t-0.656-1.094t-0.656-1.094q-1.313-1.313 -2.188-4.813q0-1.094 -0.656-3.828t-0.875-4.266q-0.438-2.188 -0.438-9.844t 0.438-10.938q0-0.219 0.766-2.953t 0.766-4.266q 1.094-4.156 2.188-5.25q 0.219-0.438 0.656-1.094t 0.656-1.094t 0.219-0.656q 3.281-5.688 10.5-7.875q 7-1.969 19.031-1.969 q 7.438,0 10.719,0.656q 2.625,0 8.313,1.313q 2.625,0.875 5.469,3.5q 1.531,0.219 4.594,4.375zM 359.844,155.187q 2.625-3.938 4.375-4.375q 3.5-2.844 5.469-3.5q 4.375-1.313 8.313-1.313q 3.281-0.656 10.719-0.656q 12.688,0 18.594,1.969q 7.438,1.969 10.281,7.875q 1.313,0.875 1.969,2.844l 2.188,5.25q 0.656,3.5 1.75,7.219q0,1.531 0.219,5.141t 0.219,5.797q0,2.406 -0.219,5.688t-0.219,4.156l-1.75,8.094q-0.438,0.875 -1.203,2.516t-0.984,2.297q-0.656,1.969 -1.969,2.844q-0.438,2.406 -3.938,5.25q-2.188,1.969 -5.469,2.625 q-1.313,0.656 -3.938,1.094t-4.156,0.875q-1.531,0 -5.25,0.219t-5.688,0.219q-1.531,0 -2.844-0.438l-4.156,0 l-0.875,0 l0,1.75 q 0.656,2.406 2.406,5.688q 1.969,2.625 1.969,5.469q0,3.938 -2.844,5.906q-1.531,2.625 -6.781,2.625q-1.75,0 -2.844-0.656q-0.875,0 -1.531-0.219t-1.313-0.547t-1.313-0.547l-1.531-0.875q-1.313-0.656 -2.188-1.313q-0.438-1.531 -3.063-5.031q-1.094-1.313 -3.5-7.875q-2.844-9.844 -2.844-10.719q-0.875-6.344 -1.969-12.031q0-2.625 -0.219-6.344t-0.219-5.469l0-9.188 q 1.094-7.438 1.313-8.094 q0-5.031 1.75-7.875q 0.656-3.5 3.281-6.344zM 69.344,170.5l0-7.219 q 0.656-2.625 1.969-5.25q0-1.094 0.766-2.516t 0.984-1.859l 2.625-2.406q 3.719-2.844 4.813-3.063l 6.563-2.188q 1.094,0 3.172-0.328t 2.953-0.328l 6.563,0 q 11.156,0 17.5,1.969q 7,2.188 10.719,7.875q0,0.219 0.219,0.656t 0.438,1.094t 0.438,1.094q 0.875,1.094 1.969,5.25q 0.219,1.313 0.875,3.828t 0.875,3.391l0,10.938 l0,9.844 q0,0.656 -1.75,8.094q-0.656,3.281 -1.969,4.813q-0.219,0.875 -0.656,1.969t-0.438,1.75q-3.281,5.469 -10.719,7.438 q-5.25,1.969 -17.063,1.969q-1.75,0 -4.813-0.219t-4.594-0.219q-1.094,0 -8.75-1.531q-3.719-1.313 -6.781-3.5q-2.844-2.188 -2.844-7.219q0-1.094 0.656-3.063q0-1.313 1.531-3.063l 2.844-1.969q 3.063-1.531 4.156-1.531q 1.969,0.875 4.813,0.875q 1.094,0 2.406,0.328t 1.969,0.328t 1.859,0.438t 1.859,0.438q 0.438,0 1.969,0.219t 2.844,0.219q 5.25,0 7.219-0.438q 1.531,0 3.063-1.531q 1.969-0.875 1.969-3.063q0-2.406 -2.844-2.406l-5.25,0 q-1.969,0.438 -6.563,0.438q-2.844,0 -10.5-1.094q-4.156,0 -8.969-2.625 q-3.719-2.625 -6.125-6.563q-1.969-2.844 -1.969-10.063zM 284.813,170.5q0-5.469 0.438-7.219q0-3.5 1.531-5.25q 0.219-1.094 0.766-2.406t 0.766-1.969q 0.875-0.219 1.859-1.203t 1.641-1.203q 3.281-2.625 5.031-3.063q 0.219,0 2.406-0.984t 3.281-1.203q 1.313,0 3.281-0.328t 2.844-0.328l 6.563,0 q 11.594,0 17.938,1.969q 6.125,1.75 10.063,7.875q 0.875,0.656 1.969,2.844q 0.875,1.75 1.75,5.25q0,2.844 1.313,7.219q0,1.531 0.547,5.141t 0.547,5.797q0,2.406 -0.547,5.688 t-0.547,4.156q-1.313,6.563 -1.313,8.094q-0.438,2.188 -1.75,4.813q-0.438,1.094 -1.094,2.297t-0.875,1.422q-3.5,5.906 -10.063,7.438q-5.25,1.969 -16.844,1.969q-1.531,0 -5.031-0.219t-5.031-0.219q-1.094,0 -8.75-1.531q-4.813-1.75 -7-3.5q-2.844-3.719 -2.844-7.219q0-0.438 0.328-1.422t 0.328-1.641q 0.438-0.656 0.984-1.531t 1.203-1.531q 1.313-1.313 2.844-1.969q 2.625-1.531 4.156-1.531q 1.969,0.875 5.031,0.875q 0.656,0 1.859,0.328t 1.859,0.328t 1.859,0.438t 1.641,0.438 q 0.875,0 2.516,0.219t 2.297,0.219q 5.469,0 7.438-0.438q 2.625,0 3.719-1.531q 1.75-0.875 1.75-3.063q0-2.406 -3.063-2.406l-5.688,0 q-1.969,0.438 -6.563,0.438q-1.313,0 -10.063-1.094q-4.375,0 -8.75-2.625q-4.594-2.406 -6.125-6.563q-2.406-2.625 -2.406-10.063zM 12.031,135.281q-3.063-2.188 -3.063-7.875q0-0.438 0.219-1.969t 0.219-2.188q 0.219-0.219 1.094-1.203t 1.531-1.641q 0.219-0.219 0.656-0.438l 1.313-0.656t 1.531-0.875q 2.625-1.094 4.156-1.094q 3.063,0 5.25,1.969q 4.375,2.188 6.563,3.938 q 0.219,0.219 2.516,2.844t 3.828,3.719q 2.844,2.844 6.344,7.875q 3.5,4.813 4.813,7.219q 1.094,1.313 2.625,3.828t 2.188,3.172q 3.063,7.656 4.594,10.719q 2.625,4.813 4.594,12.25q 3.063,5.25 3.719,12.906q 1.531,5.031 1.531,15.094l0,5.031 q-0.438,1.313 -1.094,2.625l-0.875,1.75q-1.313,2.406 -3.281,3.063q-1.969,1.531 -5.469,1.531q-1.094,0 -5.688-1.531q-2.844-2.844 -3.281-4.813q-1.531-5.031 -1.75-6.344q0-3.719 -0.875-8.313q0-4.594 -0.656-6.781q-0.219-1.313 -0.547-4.266t-0.547-4.266 q-0.219-0.656 -1.203-3.281t-1.203-3.938q-0.875-3.281 -3.281-6.563q0-0.438 -0.656-0.438t-0.656,0.438q-4.594,5.031 -9.406,14.656q-4.375,12.469 -4.594,14.438q-0.656,6.125 -1.969,8.75l-1.531,6.563q-0.656,1.969 -3.281,4.156q-1.094,1.531 -5.688,1.531t-7.875-3.281q-2.844-3.063 -2.844-10.063q0-6.781 2.844-15.75q 1.094-3.281 6.563-16.406q 1.313-2.844 4.047-7.438t 3.609-6.344q 6.344-7.656 7.438-9.406l 0.438-0.875q0-0.656 -0.438-0.656q-2.844-3.5 -6.781-6.125 q-3.719-2.844 -5.688-5.25zM 183.969,194.562q 0.219-0.438 1.094-1.094l 0.875-0.656q0-0.219 0.328-0.984t 0.328-1.422l 0.219-1.313q 0.438-1.313 0.438-2.406l0-5.25 q0-7.656 -0.656-9.625q-0.656-3.063 -2.625-3.5q0-1.531 -0.875-1.531q0-0.438 -2.406-0.438q-0.656-0.438 -3.281-0.438l-4.156,0 l-5.031,0 q-2.625,0 -3.063,0.438q-0.875,0 -1.531,0.219l-0.438,0.219q-0.438,0 -1.094,1.531q-2.188,2.188 -2.188,3.5q-0.875,3.063 -0.875,7.219l0,3.5 q0,3.063 0.438,4.594q0,3.063 0.438,4.156l 2.188,3.281l 1.094,1.313 q 0.219,0 0.766,0.328t 1.203,0.328l 3.063,0 q 1.531,0.875 5.031,0.875q 2.625,0 4.156-0.875l 3.281,0 q 0.438,0 1.313-0.328t 1.094-0.328zM 235.813,194.562q 0.875,0.875 0.875,1.313q 0.219,0 1.094,0.328t 1.531,0.328l 2.625,0 q 1.75,0.875 5.031,0.875q 3.063,0 4.594-0.875l 2.844,0 l 2.188-0.656q 0.219-0.219 0.547-0.438t 0.766-0.438t 0.656-0.438q 0.875-1.313 0.875-3.281q 1.313-2.188 1.313-4.156l0-4.594 l0-3.5 q0-5.688 -0.438-7.219q-1.094-2.844 -1.75-3.5l-1.531-1.531q-0.219,0 -0.766-0.219t-0.984-0.219q-0.656-0.438 -3.281-0.438 l-5.031,0 l-5.031,0 q-2.844,0 -3.281,0.438q-1.531,0 -1.969,0.438q-0.219,0 -0.875,1.531q-0.875,0.656 -1.969,3.5q-1.313,3.938 -1.313,9.625q0,4.156 0.438,5.25l0,3.719 q 1.313,2.406 1.531,2.406q 0.219,0.219 0.547,0.766t 0.766,0.984zM 400.094,194.562q 1.094-1.75 1.313-1.75q0-0.219 0.328-0.984t 0.328-1.422q 0.438-0.438 0.438-3.719q0-0.438 0.328-2.297t 0.328-2.953q0-4.594 -1.094-9.625q-0.438-1.969 -1.969-3.5l-1.094-1.531q-0.656-0.438 -1.969-0.438q-1.531-0.438 -3.5-0.438l-4.813,0 l-5.031,0  q-2.625,0 -3.281,0.438q-0.219,0 -0.875,0.219t-1.094,0.219q-0.438,0.438 -0.875,1.531q-1.531,1.531 -1.969,3.5q-1.313,4.594 -1.313,7.219l0,3.5 q0,0.656 0.328,2.188t 0.328,2.406q0,0.656 0.328,2.188t 0.328,1.969q 0.219,0.656 1.969,3.281q 0.875,0.875 0.875,1.313q 0.438,0 1.094,0.328t 0.875,0.328l 3.281,0 q 1.75,0.875 5.031,0.875q 2.625,0 4.375-0.875l 2.844,0 l 2.406-0.656q 0.438-0.438 0.984-0.766t 0.766-0.547zM 111.563,168.75q0-1.313 -1.094-2.406q-3.281-1.313 -3.5-1.313q-1.969-0.438 -6.125-0.438q-5.031,0 -7,0.438 q-2.406,0 -3.063,0.875q0,0.219 -0.219,0.438t-0.219,0.438q-0.875,0.656 -0.875,1.531q0,1.094 1.313,3.063q 0.219,0.219 1.313,0.656t 1.75,0.656l 7,0 l 5.688,0 q 2.406-0.875 3.063-1.313q 1.969-0.875 1.969-2.625zM 327.031,168.75q0-1.531 -1.313-2.406q-1.313-1.313 -3.281-1.313q-1.313-0.438 -6.125-0.438q-5.031,0 -6.563,0.438q-2.188,0 -3.063,0.875q-0.438,0.438 -1.094,0.875l0,1.531 q0,2.406 1.094,3.063q 0.656,0.438 3.063,1.313l 6.563,0 l 6.125,0 q 0.875-0.438 3.281-1.313q 1.313-1.313 1.313-2.625zM 211.094,120.406q-9.188-0.656 -16.406,0q-2.625,0 -7.219,0.875 t-5.25,0.875q-7.219,2.844 -8.969,4.156q-1.094,0.438 -3.5,1.313t-3.5,1.531q-2.625,1.531 -3.719,1.531q-1.094,0.438 -3.063,0.438q-3.281,0 -5.906-3.063q-1.969-3.063 -1.094-7.219q0-3.063 1.969-4.813q 2.844-3.063 5.469-4.594q 2.188-1.75 6.344-3.938q 0.875-0.438 10.719-3.5q 3.5-1.313 15.094-2.188q 10.5-2.188 20.781,0.438q 10.719,0.656 20.125,3.938q 8.094,1.531 14.438,5.25q 7.219,3.5 10.281,5.906q 1.313,1.094 2.844,2.734t 2.188,2.078q 2.188,1.75 4.594,5.25q 0.875,3.5 0.875,5.688q-0.875,4.594 -2.625,6.344 q-2.188,2.625 -6.125,1.969q-1.094,0 -2.844-0.875q-2.188-0.656 -4.156-2.406q-0.875-1.313 -5.469-4.594q-2.844-2.625 -8.313-5.469q-1.313-0.438 -5.141-2.297t-6.672-2.516q-6.781-2.188 -15.75-2.844zM 294.219,130.687q0,1.094 -1.203,2.297t-2.516,1.203q-1.969,0 -3.391-1.094t-1.422-2.406q0-1.531 1.422-2.953t 3.391-1.422q 3.719,0 3.719,4.375zM 297.938,119.75l0-19.688 q0-1.75 1.203-2.953t 2.953-1.203 q 1.313,0 2.406,1.203t 1.094,2.953l0,12.688 q0,5.031 4.156,5.031q 1.969,0 3.719-1.422t 1.75-3.609l0-12.688 q0-4.156 3.063-4.156q 3.719,0 3.719,4.156l0,14 q0,4.594 -2.844,7.328t-7.438,2.734t-6.781-3.281q0,2.406 -2.844,2.406q-4.156,0 -4.156-3.5zM 344.531,116.031q 2.406,0 2.406,3.281q0,2.406 -3.063,3.609t-5.469,1.203q-5.688,0 -9.406-4.266t-3.719-10.172q0-5.688 3.5-9.734t 9.625-4.047q 2.625,0 5.578,1.094t 2.953,3.5 q0,3.5 -2.844,3.5q-0.219,0 -2.406-0.547t-3.281-0.547q-5.688,0 -5.688,6.781q0,7.656 5.688,7.656q 1.094,0 3.172-0.656t 2.953-0.656zM 286.781,119.75l0-19.688 q0-4.156 3.719-4.156q 1.313,0 2.516,1.203t 1.203,2.953l0,19.688 q0,1.531 -1.203,2.516t-2.516,0.984q-3.719,0 -3.719-3.5zM 353.938,104q-3.5,0 -3.5-4.375q0-1.531 1.094-2.625t 2.406-1.094q 1.75,0 3.063,1.094t 1.313,2.625q0,4.375 -4.375,4.375z" horiz-adv-x="423.938"  />
<glyph unicode="&#xf120;" d="M 98,83.437l-32.156,0 q-3.719,0 -10.391,2.625t-9.297,2.625q-3.719,0 -10.391,3.5t-9.297,3.5q-7,7.219 -14,12.469q0,3.719 -2.625,10.5t-2.625,9.188q-7.219,7 -7.219,26.469l0,19.688 l0,26.906 l0,39.156 q0,7.656 0.219,11.375t 1.859,9.188t 5.141,11.375q0,12.031 0.766,18.156t 4.484,15.75q0,2.406 3.5,12.688t 3.5,14.219q 5.25,3.938 6.781,5.469t 5.906,6.781l 7,7l 12.688,0 q 5.25,4.156 7,4.922t 7,0.766q 3.719,0 9.953-2.844 t 9.734-2.844q0-3.719 3.5-10.281t 3.5-8.969q0-3.5 -3.5-10.719t-3.5-10.938q-7-5.25 -7-12.25l0-7 l 14,0 l 5.469,0 l 33.688,0 q 19.906,0 25.375-5.469q 4.594,0 7-0.219t 4.703-1.859t 2.297-4.922q 2.406-3.281 7.438-6.563t 5.031-6.344q 7.219-7 7.219-14q0-5.25 5.469-12.469l0-19.688 q 4.813-8.313 5.906-14.547t 1.094-17.391q0-12.031 -1.094-16.953t-5.906-9.734l0-26.906 q-2.406-3.063 -3.828-6.125 t-1.641-4.594l0-1.531 q0-3.719 -3.609-7.328t-3.609-7.109q-0.438-0.438 -6.234-5.25t-11.375-7.984t-14.328-6.234q-9.844-3.719 -20.125-4.484t-33.469-0.766zM 406.219,272q 5.031-8.531 6.125-14.656t 1.094-17.281l0-39.156 l0-26.906 l0-19.688 q0-19.469 -7.219-26.469q0-2.406 -2.625-9.188t-2.625-10.5q-7-5.25 -14-12.469q-3.719,0 -10.063-3.5t-9.844-3.5t-9.625-2.625t-9.625-2.625 q 8.969,0 11.484-0.984t 7.766-6.672q 3.5-3.281 5.141-6.781t 1.859-5.797t 0.219-6.672l0-19.906 q-3.063,0 -5.031-1.859t-4.266-5.141t-4.922-5.25q-2.406,0 -3.828-1.859t-3.5-5.688t-4.922-6.672q-6.781-3.719 -16.844-10.172t-15.531-9.734q-7.875-3.719 -20.891-6.891t-18.266-5.359q-14.656-5.25 -20.781-7.219t-18.047-4.594t-21.984-2.625l-58.406,0 q-12.25,0 -18.156,0.219 t-13.234,1.969t-13.234,5.25q-7,3.5 -18.703,6.563t-15.203,5.688q-2.406,0 -9.188,3.5t-10.5,3.5q-2.625,2.625 -4.922,6.234t-3.828,5.141t-3.938,1.531q-3.281,3.281 -4.922,7.328t-1.859,6.672t-0.219,7.219q0,12.25 7,19.688q0,3.5 2.953,4.375t 9.734,0.875l 7,0 q 3.5,0 5.25-0.109t 3.828-0.547t 2.844-1.531t 0.766-3.063q 3.719,0 10.281-3.719t 9.188-3.719q 3.719-3.719 13.672-6.891t 13.016-5.359 q 6.125,0 19.688-3.5t 19.688-3.5l 46.156,0 q 10.281,3.719 25.047,6.781t 21.328,5.469q 8.969,0 17.609,4.156t 14.547,10.281q 4.156,1.75 10.281,3.719t 9.734,3.719t 6.672,5.031q 2.406,3.063 5.469,6.125t 5.031,4.594l 1.969,1.531q 3.063,3.063 6.125,4.813t 4.594,1.969l 1.531,0.219q0,3.281 1.859,5.25t 3.828,2.188l 1.969,0.219l-32.375,0 q-17.063,0 -25.156,0.219t-17.938,1.422t-15.75,3.609q-6.344,3.063 -11.156,6.563t-9.188,7.438t-6.344,5.469q0,3.5 -3.719,7.109t-3.719,7.328 q-7,5.25 -7,12.25l0,26.906 q-3.719,4.813 -4.484,9.734t-0.766,16.953q0,7.656 0.219,11.375t 1.422,9.188t 3.609,11.375l0,19.688 q0,3.281 1.75,6.344t 3.5,4.594l 1.75,1.531q0,3.063 1.859,6.563t 3.609,5.469l 1.969,1.969q0,3.063 5.141,6.453t 7.547,6.453q0,3.281 2.297,4.922t 4.703,1.859t 7,0.219q 3.5,3.719 8.641,4.594t 16.297,0.875l 33.906,0 l 5.25,0 l 14.219,0 l0,7 q0,3.063 -1.75,6.125t-3.5,4.594l-1.75,1.531q0,3.719 -3.609,10.938t-3.609,10.719 q0,2.406 3.609,8.969t 3.609,10.281q 3.5,0 9.844,2.844t 10.063,2.844q 5.25,0 6.781-0.766t 5.469-4.922l 14.219,0 l 5.25-7q 5.469-5.25 6.453-6.781t 0.984-5.469q 5.031-5.25 9.516-14t 4.484-12.906q 3.719-9.625 4.484-15.75t 0.766-18.156zM 58.844,181l0-19.25 q0-3.719 3.5-7.328t 3.5-7.109l 7.438,0 l0-5.25 l 12.25,0 l 12.469,0 l 14.438,0 l 12.25,0 l0,5.25 l 7,0 q0,3.5 2.734,7.109t 2.734,7.328l0,26.688 l0,19.688 l0,5.25 l0,7 l-5.469,7 q0,0.656 -0.219,1.531t-1.969,2.406t-4.813,1.531l-12.25,0 l-14.438,0 l-12.469,0 l-7,0 l-5.25,0 l-7.438-5.469q0-0.875 -0.219-1.969t-1.969-3.063t-4.813-1.969l0-12.25 l0-14.438 l0-12.688 zM 354.813,208.125l0,12.25 q-3.063,0 -4.813,1.75t-1.969,3.5l-0.219,1.75l-7.656,5.469l-5.25,0 l-7,0 l-12.469,0 l-14.438,0 l-12.25,0 q-3.281,0 -5.031-1.313t-1.969-2.625l-0.219-1.531l-0.547,0 t-1.203-0.438t-1.641-1.094t-1.313-2.078t-0.547-3.391l0-7 l0-5.25 l0-19.688 l0-26.688 q0-5.688 0.656-7.438t 4.594-7 q 3.281,0 5.031-1.313t 1.969-2.625l 0.219-1.313l 12.25,0 l 14.438,0 l 12.469,0 l 7,0 q 2.406,0 3.719,1.313t 1.313,2.625l 0.219,1.313l 7.656,0 q0,5.25 0.875,7.109t 6.125,7.328l0,19.25 l0,12.688 l0,14.438 z" horiz-adv-x="413.438"  />
<glyph unicode="&#xe000;" d="M 224,384C 100.288,384,0,283.712,0,160s 100.288-224, 224-224s 224,100.288, 224,224S 347.712,384, 224,384z M 224-8
		c-92.784,0-168,75.216-168,168c0,92.784, 75.216,168, 168,168c 92.784,0, 168-75.216, 168-168C 392,67.216, 316.784-8, 224-8zM 140,160A84,84 12780 1 1 308,160A84,84 12780 1 1 140,160z"  />
<glyph unicode="&#xe001;" d="M 373.337,384L 74.675,384 C 33.605,384,0,350.396,0,309.323l0-298.647 C0-30.422, 33.605-64, 74.675-64l 298.662,0 
	C 414.408-64, 448-30.422, 448,10.677L 448,309.323 C 448,350.396, 414.408,384, 373.337,384z M 373.337,328c 3.495,0, 6.801-1.021, 9.634-2.775
	L 224,193.799L 65.033,325.224C 67.867,326.978, 71.177,328, 74.675,328L 373.337,328 z M 74.675-8c-0.842,0-1.671,0.064-2.487,0.178
	l 98.711,136.923l-12.8,12.799L 56,39.8L 56,307.173 L 224,104L 392,307.172l0-267.372 L 289.9,141.9l-12.799-12.799l 98.712-136.924
	c-0.813-0.114-1.639-0.178-2.477-0.178L 74.675-8 z"  />
<glyph unicode="&#x1f4c5;" d="M 416.063,288.187l0-320.031 q0-13.125 -9.516-22.641t-22.641-9.516l-351.969,0 q-13.125,0 -22.531,9.516t-9.406,22.641l0,320.031 q0,13.125 9.406,22.531t 22.531,9.406l 32.156,0 l0,24.063 q0,16.625 11.594,28.219t 28.219,11.594l 16.188,0 q 16.625,0 28.219-11.594t 11.594-28.219l0-24.063 l 96.031,0 l0,24.063 q0,16.625 11.703,28.219t 28.328,11.594l 15.969,0 q 16.625,0 28.328-11.594t 11.703-28.219l0-24.063 l 31.938,0 q 13.125,0 22.641-9.406 t 9.516-22.531zM 127.969,272l0,72.188 q0,3.063 -2.406,5.469t-5.469,2.406l-16.188,0 q-3.063,0 -5.469-2.406t-2.406-5.469l0-72.188 q0-3.063 2.406-5.469t 5.469-2.406l 16.188,0 q 3.063,0 5.469,2.406t 2.406,5.469zM 320.031,272l0,72.188 q0,3.063 -2.516,5.469t-5.578,2.406l-15.969,0 q-3.063,0 -5.469-2.406t-2.406-5.469l0-72.188 q0-3.063 2.406-5.469t 5.469-2.406l 15.969,0 q 3.063,0 5.578,2.406t 2.516,5.469zM 103.906,224.094l-71.969,0 l0-71.969 l 71.969,0  l0,71.969 zM 199.938,224.094l-79.844,0 l0-71.969 l 79.844,0 l0,71.969 zM 295.969,224.094l-80.063,0 l0-71.969 l 80.063,0 l0,71.969 zM 383.906,224.094l-71.969,0 l0-71.969 l 71.969,0 l0,71.969 zM 103.906,136.156l-71.969,0 l0-80.063 l 71.969,0 l0,80.063 zM 199.938,136.156l-79.844,0 l0-80.063 l 79.844,0 l0,80.063 zM 295.969,136.156l-80.063,0 l0-80.063 l 80.063,0 l0,80.063 zM 383.906,136.156l-71.969,0 l0-80.063 l 71.969,0 l0,80.063 zM 103.906,40.125l-71.969,0 l0-71.969 l 71.969,0 l0,71.969 zM 199.938,40.125l-79.844,0 l0-71.969 l 79.844,0 l0,71.969  zM 295.969,40.125l-80.063,0 l0-71.969 l 80.063,0 l0,71.969 zM 383.906,40.125l-71.969,0 l0-71.969 l 71.969,0 l0,71.969 z" horiz-adv-x="415.844"  />
<glyph unicode="&#xf046;" d="M 351.969,151.687l0-79.625 q0-29.969 -21.109-50.969t-50.859-21l-208.031,0 q-29.969,0 -50.969,21t-21,50.969l0,208.031 q0,29.75 21,50.859t 50.969,21.109l 208.031,0 q 15.75,0 29.313-6.125q 3.719-1.75 4.375-5.906q 0.656-4.375 -2.188-7.219l-12.25-12.25q-2.406-2.406 -5.688-2.406q-1.094,0 -2.406,0.438q-5.25,1.531 -11.156,1.531l-208.031,0 q-16.625,0 -28.328-11.703t-11.703-28.328l0-208.031 q0-16.625 11.703-28.328 t 28.328-11.703l 208.031,0 q 16.625,0 28.328,11.703t 11.703,28.328l0,63.438 q0,3.5 2.188,5.688l 15.969,15.969q 2.406,2.406 5.906,2.406q 1.313,0 2.844-0.656q 5.031-2.188 5.031-7.219zM 409.719,273.75l-203.438-203.438q-6.125-6.125 -14.219-6.125t-14.219,6.125l-107.625,107.625q-6.125,6.125 -6.125,14.219t 6.125,14.219l 27.563,27.563q 6.125,6.125 14.219,6.125t 14.219-6.125l 65.844-65.844l 161.656,161.656q 6.125,6.125 14.219,6.125t 14.219-6.125l 27.563-27.344 q 6.125-6.125 6.125-14.328t-6.125-14.328z" horiz-adv-x="415.844"  />
<glyph unicode="&#xe002;" d="M 420-64L 28-64 c-15.456,0-28,12.544-28,28L0,356 c0,15.456, 12.544,28, 28,28l 336,0 l 84-84l0-336 
	C 448-51.456, 435.456-64, 420-64z M 112,6c0-7.742, 6.272-14, 14-14l 196,0 c 7.742,0, 14,6.258, 14,14l0,112 c0,7.742-6.258,14-14,14L 126,132 c-7.728,0-14-6.258-14-14L 112,6 z
	 M 308,314c0,7.742-6.258,14-14,14s-14-6.258-14-14l0-42 c0-7.742, 6.258-14, 14-14s 14,6.258, 14,14L 308,314 z M 392,286l-42,42l-14,0 l0-98 c0-7.742-6.258-14-14-14L 126,216 
	c-7.728,0-14,6.258-14,14L 112,328 L 70,328 C 62.272,328, 56,321.742, 56,314l0-308 c0-7.742, 6.272-14, 14-14l 14,0 L 84,146 c0,7.742, 6.272,14, 14,14l 252,0 c 7.742,0, 14-6.258, 14-14l0-154 l 14,0 
	c 7.742,0, 14,6.258, 14,14L 392,286 z"  />
<glyph unicode="&#xe003;" d="M 308,104c-28-28-28-56-56-56s-56,28-84,56s-56,56-56,84s 28,28, 56,56S 112,356, 84,356S0,272,0,272c0-56, 57.531-169.531, 112-224
	s 168-112, 224-112c0,0, 84,56, 84,84S 336,132, 308,104z"  />
<glyph unicode="&#xe004;" d="M 406,328L 42,328 C 18.9,328,0,309.1,0,286l0-252 c0-23.1, 18.9-42, 42-42l 364,0 c 23.1,0, 42,18.9, 42,42L 448,286 C 448,309.1, 429.1,328, 406,328z M 42,300
		l 364,0 c 7.589,0, 14-6.411, 14-14l0-42 L 28,244 l0,42 C 28,293.589, 34.411,300, 42,300z M 406,20L 42,20 c-7.589,0-14,6.411-14,14L 28,160 l 392,0 l0-126 
		C 420,26.411, 413.589,20, 406,20zM 56,104L 84,104L 84,48L 56,48zM 112,104L 140,104L 140,48L 112,48zM 168,104L 196,104L 196,48L 168,48z"  />
<glyph unicode="&#xf021;" d="M 383.906,320.125l0-112 q0-6.563 -4.703-11.266t-11.266-4.703l-112,0 q-6.563,0 -11.266,4.703t-4.703,11.266q0,6.344 4.813,11.156l 34.563,34.563q-17.938,16.625 -40.578,25.484t-46.703,8.859q-33.469,0 -62.672-16.297t-46.484-44.734q-1.969-3.5 -3.938-7.547t-3.172-6.891t-3.063-7.656t-2.953-7.219q-2.188-5.688 -7.438-5.688l-49.875,0 q-3.281,0 -5.578,2.297 t-2.297,5.578l0,1.75 q 16.188,67.156 67.484,108.719t 119.984,41.563q 36.531,0 70.984-13.891t 61.141-39.047l 32.594,32.156q 4.813,4.813 11.156,4.813q 6.563,0 11.266-4.703t 4.703-11.266zM 321.781,128.062l 47.906,0 q 3.5,0 5.797-2.297t 2.297-5.578q0-1.313 -0.219-1.75q-10.5-44.188 -36.969-78.203t-65.297-53.047t-84.328-19.031q-36.531,0 -70.656,13.781t-60.813,39.156l-32.156-32.156 q-4.813-4.813 -11.375-4.813t-11.266,4.703t-4.703,11.266l0,112 q0,6.563 4.703,11.266t 11.266,4.703l 112,0 q 6.563,0 11.266-4.703t 4.703-11.266t-4.594-11.156l-34.344-34.344q 17.5-16.625 40.25-25.594t 46.813-8.969q 33.469,0 62.563,16.297t 46.375,44.734q 3.938,6.563 13.344,29.313q 2.188,5.688 7.438,5.688z" horiz-adv-x="383.906"  />
<glyph unicode="&#xe005;" d="M 448,384 L 448,216 L 387.511,276.489 L 294.761,183.739 L 247.739,230.761 L 340.489,323.511 L 280,384 ZM 107.511,323.511 L 200.261,230.761 L 153.239,183.739 L 60.489,276.489 L 0,216 L 0,384 L 168,384 ZM 387.511,43.511 L 448,104 L 448-64 L 280-64 L 340.489-3.511 L 247.739,89.239 L 294.761,136.261 ZM 200.261,89.239 L 107.511-3.511 L 168-64 L 0-64 L 0,104 L 60.489,43.511 L 153.239,136.261 Z"  />
<glyph unicode="&#xe006;" d="M 438.433,246.519l-44.234,44.233c-10.847,10.847-28.599,28.598-39.446,39.447l-44.234,44.233
	c-10.847,10.847-30.167,12.76-42.932,4.251L 146.646,298.055c-12.764-8.51-17.595-26.7-10.735-40.421l 30.838-61.676
	c 0.942-1.884, 2.033-3.892, 3.233-5.976L 14,34L0-64l 84,0 l0,28 l 56,0 l0,56 l 56,0 l0,56l 56,0 l0,31.144 c 2.798-1.668, 5.484-3.157, 7.959-4.394
	l 61.674-30.838c 13.723-6.861, 31.911-2.029, 40.421,10.735l 80.629,120.942C 451.194,216.352, 449.279,235.671, 438.433,246.519z
	 M 65.9,10.101l-19.799,19.799l 136.313,136.312l 19.799-19.799L 65.9,10.101z M 401.196,198.603l-19.8-19.8
	c-5.445-5.444-14.354-5.444-19.799,0L 242.804,297.598c-5.445,5.444-5.445,14.354,0,19.799l 19.8,19.8
	c 5.445,5.444, 14.354,5.444, 19.799,0L 401.196,218.402C 406.641,212.958, 406.641,204.048, 401.196,198.603z"  />
<glyph unicode="&#xe007;" d="M 305.301,240.916l-28.416,28.403L 134.781,127.245c-23.544-23.534-23.544-61.709,0-85.244
	c 23.539-23.534, 61.714-23.534, 85.257,0l 170.525,170.497c 39.25,39.227, 39.25,102.84,0,142.068
	c-39.229,39.245-102.861,39.245-142.092,0L 69.418,175.565l 0.015-0.014c-0.127-0.133-0.268-0.252-0.383-0.37
	c-54.732-54.73-54.732-143.437,0-198.146c 54.711-54.712, 143.442-54.712, 198.182,0c 0.12,0.12, 0.226,0.248, 0.359,0.383l 0.014-0.015
	l 122.208,122.19l-28.431,28.402L 239.181,5.818l-0.007,0 c-0.13-0.117-0.247-0.249-0.37-0.369
	c-38.97-38.963-102.366-38.963-141.346,0c-38.965,38.956-38.965,102.341,0,141.303c 0.133,0.133, 0.264,0.255, 0.389,0.37l-0.020,0.026
	l 179.060,179.010c 23.499,23.51, 61.751,23.51, 85.263,0c 23.499-23.509, 23.499-61.752,0-85.243L 191.624,70.422
	c-7.847-7.841-20.586-7.841-28.425,0c-7.829,7.825-7.829,20.576,0,28.402L 305.301,240.916z"  />
<glyph unicode="&#xe008;" d="M 168,300L 224,300L 224,272L 168,272zM 252,300L 308,300L 308,272L 252,272zM 392,300 L 392,188 L 308,188 L 308,216 L 364,216 L 364,272 L 336,272 L 336,300 ZM 140,216L 196,216L 196,188L 140,188zM 224,216L 280,216L 280,188L 224,188zM 84,272 L 84,216 L 112,216 L 112,188 L 56,188 L 56,300 L 140,300 L 140,272 ZM 168,132L 224,132L 224,104L 168,104zM 252,132L 308,132L 308,104L 252,104zM 392,132 L 392,20 L 308,20 L 308,48 L 364,48 L 364,104 L 336,104 L 336,132 ZM 140,48L 196,48L 196,20L 140,20zM 224,48L 280,48L 280,20L 224,20zM 84,104 L 84,48 L 112,48 L 112,20 L 56,20 L 56,132 L 140,132 L 140,104 ZM 420,356 L 28,356 L 28-36 L 420-36 L 420,356 Z M 448,384 L 448,384 L 448-64 L 0-64 L 0,384 L 448,384 Z"  />
<glyph unicode="&#xe009;" d="M 448,76c0-15.456-12.544-28-28-28l0-30.576 c 16.268-5.796, 28-21.168, 28-39.424
	c0-23.184-18.816-42-42-42c-18.27,0-33.642,11.732-39.424,28L 336-36 c0-15.456-12.544-28-28-28s-28,12.544-28,28l-28,0 c0-15.456-12.544-28-28-28s-28,12.544-28,28l-28,0 
	c0-15.456-12.544-28-28-28s-28,12.544-28,28L 81.424-36 C 75.642-52.268, 60.256-64, 42-64c-23.198,0-42,18.816-42,42c0,18.27, 11.718,33.628, 28,39.424L 28,48 
	c-15.456,0-28,12.544-28,28s 12.544,28, 28,28l0,28 c-15.456,0-28,12.544-28,28s 12.544,28, 28,28l0,28 c-15.456,0-28,12.544-28,28s 12.544,28, 28,28L 28,302.576 
	C 11.718,308.358,0,323.744,0,342c0,23.198, 18.802,42, 42,42c 18.256,0, 33.642-11.718, 39.424-28L 112,356 c0,15.456, 12.544,28, 28,28s 28-12.544, 28-28l 28,0 
	c0,15.456, 12.544,28, 28,28s 28-12.544, 28-28l 28,0 c0,15.456, 12.544,28, 28,28s 28-12.544, 28-28l 30.576,0 C 372.358,372.282, 387.73,384, 406,384c 23.184,0, 42-18.802, 42-42
	c0-18.256-11.732-33.642-28-39.424L 420,272 c 15.456,0, 28-12.544, 28-28s-12.544-28-28-28l0-28 c 15.456,0, 28-12.544, 28-28s-12.544-28-28-28l0-28 C 435.456,104, 448,91.456, 448,76z
	 M 364,286c0,7.728-6.258,14-14,14L 98,300 C 90.272,300, 84,293.728, 84,286l0-252 c0-7.742, 6.272-14, 14-14l 252,0 c 7.742,0, 14,6.258, 14,14L 364,286 z"  />
<glyph unicode="&#xe00a;" d="M 406-64L 42-64 c-7.728,0-14,6.258-14,14L 28,174 c0,7.742, 6.272,14, 14,14l 42,0 l0,56 C 84,321.322, 146.678,384, 224,384
	s 140-62.678, 140-140l0-56 l 42,0 c 7.742,0, 14-6.258, 14-14l0-224 C 420-57.742, 413.742-64, 406-64z M 308,251C 308,293.532, 270.382,328, 224,328s-84-34.468-84-77L 140,188 l 168,0 L 308,251 z"  />
<glyph unicode="&#xe00b;" d="M 392,384L 56,384 C 48.272,384, 42,377.728, 42,370l0-84 c0-7.728, 6.272-14, 14-14l 14,0 c 7.728,0, 14,6.272, 14,14l 28,42l 84,0 
	l0-336 l-70-28c-7.728,0-14-6.258-14-14s 6.272-14, 14-14l 196,0 c 7.742,0, 14,6.258, 14,14s-6.258,14-14,14l-70,28L 252,328 l 84,0 l 28-42c0-7.728, 6.258-14, 14-14l 14,0 
	c 7.742,0, 14,6.272, 14,14L 406,370 C 406,377.728, 399.742,384, 392,384z"  />
<glyph unicode="&#x2a;" d="M 304.063,160l 66.5-38.5q 11.375-6.563 14.766-19.469t-3.172-24.281l-15.969-27.344q-6.563-11.375 -19.469-14.875t-24.281,3.063l-66.5,38.281l0-76.781 q0-13.125 -9.406-22.531t-22.531-9.406l-31.938,0 q-13.125,0 -22.641,9.406t-9.516,22.531l0,76.781 l-66.5-38.281q-11.375-6.563 -24.281-3.063t-19.469,14.875l-15.969,27.344q-6.563,11.375 -3.063,24.281t 14.875,19.469l 66.5,38.5l-66.5,38.5q-11.375,6.563 -14.875,19.469 t 3.063,24.281l 15.969,27.563q 6.563,11.375 19.469,14.875t 24.281-3.063l 66.5-38.281l0,76.781 q0,13.125 9.516,22.531t 22.641,9.406l 31.938,0 q 13.125,0 22.531-9.406t 9.406-22.531l0-76.781 l 66.5,38.281q 11.375,6.563 24.281,3.063t 19.469-14.875l 15.969-27.563q 6.563-11.375 3.172-24.281t-14.766-19.469z" horiz-adv-x="415.844"  />
<glyph unicode="&#xf00c;" d="M 376.688,293.656l 34.125-34.125q 7-7 7-16.844q0-10.063 -7-17.063l-215.031-215.031q-7-7 -17.063-7t-17.063,7l-124.469,124.469q-7,7 -7,17.063t 7,17.063l 34.125,33.906q 7,7 16.844,7q 10.063,0 17.063-7l 73.5-73.719l 164.063,164.281q 7,7 17.063,7q 9.844,0 16.844-7z"  />
<glyph unicode="&#xf00d;" d="M 243.906,144.031l 73.5-73.5q 7-7 7-16.844q0-10.063 -7-17.063l-33.906-34.125q-7-7 -17.063-7q-9.844,0 -16.844,7l-73.5,73.5l-73.5-73.5q-7-7 -17.063-7t-17.063,7l-33.906,34.125q-7,7 -7,17.063q0,9.844 7,16.844l 73.5,73.5l-73.5,73.5q-7,7 -7,17.063t 7,17.063l 33.906,33.906q 7,7 17.063,7t 17.063-7l 73.5-73.5l 73.5,73.5 q 7,7 16.844,7q 10.063,0 17.063-7l 33.906-33.906q 7-7 7-17.063t-7-17.063z" horiz-adv-x="351.969"  />
<glyph unicode="&#xf017;" d="M 383.906,160q0-39.156 -15.203-74.703t-40.797-61.141t-61.141-40.797t-74.703-15.203t-74.703,15.203t-61.25,40.797t-40.906,61.141t-15.203,74.703t 15.203,74.703t 40.906,61.25t 61.25,40.906t 74.703,15.203t 74.703-15.203t 61.141-40.906t 40.797-61.25t 15.203-74.703zM 320.031,160q0,34.563 -17.172,64.094t-46.703,46.813t-64.094,17.281 t-64.094-17.281t-46.703-46.813t-17.172-64.094t 17.172-64.094t 46.703-46.703t 64.094-17.172t 64.094,17.172t 46.703,46.703t 17.172,64.094zM 271.906,152.125l0-15.969 q0-3.063 -2.406-5.578t-5.469-2.516l-96.031,0 q-3.063,0 -5.578,2.516t-2.516,5.578l0,112 q0,3.063 2.516,5.469t 5.578,2.406l 15.969,0 q 3.063,0 5.578-2.406t 2.516-5.469l0-88.156 l 71.969,0 q 3.063,0 5.469-2.406t 2.406-5.469z" horiz-adv-x="383.906"  />
<glyph unicode="&#xe00d;" d="M 168,258A70,70 10980 1 1 308,258A70,70 10980 1 1 168,258zM0,258A70,70 10980 1 1 140,258A70,70 10980 1 1 0,258zM 336,118l0,42 c0,15.4-12.6,28-28,28l-70,0 L 70,188 L 28,188 c-15.4,0-28-12.6-28-28l0-140 c0-15.4, 12.6-28, 28-28l 280,0 c 15.4,0, 28,12.6, 28,28
		l0,42 l 112-70L 448,188 L 336,118z M 280,48L 56,48 l0,84 l 224,0 L 280,48 z"  />
<glyph unicode="&#xe00e;" d="M 406,328L 42,328 C 18.9,328,0,309.1,0,286l0-280 c0-23.1, 18.9-42, 42-42l 364,0 c 23.1,0, 42,18.9, 42,42L 448,286 C 448,309.1, 429.1,328, 406,328z
	 M 174.449,143.212L 56,50.947L 56,270.415 L 174.449,143.212z M 77.166,272L 370.834,272 L 224,161.75L 77.166,272z M 179.064,138.257L 224,90l 44.936,48.257
	L 361.053,20L 86.947,20 L 179.064,138.257z M 273.551,143.212L 392,270.415l0-219.468 L 273.551,143.212z"  />
<glyph unicode="&#xe00f;" d="M 333.315-64C 383.070,26.139, 391.453,163.634, 196,159.048L 196,48 L 28,216L 196,384l0-108.663 
	C 430.046,281.437, 456.124,68.744, 333.315-64z"  />
<glyph unicode="&#xe010;" d="M 252,275.337L 252,384 l 168-168L 252,48L 252,159.048 C 56.547,163.634, 64.93,26.139, 114.686-64
	C-8.125,68.744, 17.955,281.437, 252,275.337z"  />
<glyph unicode="&#xf022;" d="M 448,312.031l0-271.906 q0-16.625 -11.703-28.328t-28.328-11.703l-367.938,0 q-16.625,0 -28.328,11.703t-11.703,28.328l0,271.906 q0,16.625 11.703,28.328t 28.328,11.703l 367.938,0 q 16.625,0 28.328-11.703t 11.703-28.328zM 416.063,40.125l0,208.031 q0,3.063 -2.516,5.469t-5.578,2.406l-367.938,0 q-3.063,0 -5.578-2.406t-2.516-5.469l0-208.031 q0-3.063 2.516-5.578 t 5.578-2.516l 367.938,0 q 3.063,0 5.578,2.516t 2.516,5.578zM 96.031,216l0-15.969 q0-3.063 -2.516-5.469t-5.578-2.406l-15.969,0 q-3.063,0 -5.469,2.406t-2.406,5.469l0,15.969 q0,3.063 2.406,5.578t 5.469,2.516l 15.969,0 q 3.063,0 5.578-2.516t 2.516-5.578zM 383.906,216l0-15.969 q0-3.063 -2.406-5.469t-5.469-2.406l-239.969,0 q-3.063,0 -5.578,2.406t-2.516,5.469l0,15.969 q0,3.063 2.516,5.578t 5.578,2.516 l 239.969,0 q 3.063,0 5.469-2.516t 2.406-5.578zM 96.031,152.125l0-15.969 q0-3.063 -2.516-5.578t-5.578-2.516l-15.969,0 q-3.063,0 -5.469,2.516t-2.406,5.578l0,15.969 q0,3.063 2.406,5.469t 5.469,2.406l 15.969,0 q 3.063,0 5.578-2.406t 2.516-5.469zM 383.906,152.125l0-15.969 q0-3.063 -2.406-5.578t-5.469-2.516l-239.969,0 q-3.063,0 -5.578,2.516t-2.516,5.578l0,15.969 q0,3.063 2.516,5.469t 5.578,2.406l 239.969,0  q 3.063,0 5.469-2.406t 2.406-5.469zM 96.031,88.031l0-15.969 q0-3.063 -2.516-5.469t-5.578-2.406l-15.969,0 q-3.063,0 -5.469,2.406t-2.406,5.469l0,15.969 q0,3.063 2.406,5.578t 5.469,2.516l 15.969,0 q 3.063,0 5.578-2.516t 2.516-5.578zM 383.906,88.031l0-15.969 q0-3.063 -2.406-5.469t-5.469-2.406l-239.969,0 q-3.063,0 -5.578,2.406t-2.516,5.469l0,15.969 q0,3.063 2.516,5.578t 5.578,2.516l 239.969,0 q 3.063,0 5.469-2.516 t 2.406-5.578z"  />
<glyph unicode="&#x1f511;" d="M 311.938,80.156l 24.063,23.844q-0.656,0.656 -6.453,6.125t-10.063,9.625t-8.203,9.188t-3.938,7.219q0,4.375 12.141,16.516t 16.516,12.141q 3.281,0 5.688-2.406q 1.531-1.531 11.484-11.156t 20.453-19.906t 21.656-21.547t 18.266-19.469t 7.109-10.172q0-4.375 -12.25-16.625t-16.406-12.25q-2.188,0 -7.109,3.938t-9.188,8.313t-9.516,10.063t-6.125,6.563l-24.063-24.063l 54.906-54.906q 7-7 7-17.063 q0-10.5 -9.734-20.234t-20.234-9.734q-9.844,0 -16.844,7l-167.781,167.781q-44.188-32.813 -91.219-32.813q-40.906,0 -66.5,25.594t-25.594,66.281q0,29.969 14.219,60.047t 36.969,52.828t 52.828,36.969t 60.047,14.219q 40.688,0 66.281-25.484t 25.594-66.391q0-47.469 -32.594-91.438zM 208.031,256.031q0,19.906 -14.109,34.016t-34.016,14.109t-33.906-14.109t-14-34.016 q0-10.5 4.813-20.781q-10.281,4.813 -20.781,4.813q-19.906,0 -34.016-14t-14.109-33.906t 14.109-34.016t 34.016-14.109t 33.906,14.109t 14,34.016q0,10.938 -4.594,20.781q 10.281-4.813 20.563-4.813q 19.906,0 34.016,14t 14.109,33.906z"  />
<glyph unicode="&#xe011;" d="M 429.27,313.953C 366.431,322.987, 297,328, 224.001,328c-73.001,0-142.431-5.013-205.272-14.047
	C 6.684,266.823,0,214.75,0,160c0-54.749, 6.684-106.823, 18.729-153.952C 81.57-2.987, 151-8, 224.001-8
	c 72.999,0, 142.429,5.013, 205.269,14.048C 441.315,53.177, 448,105.251, 448,160C 448,214.75, 441.315,266.823, 429.27,313.953z
	 M 168.001,76L 168.001,244 l 140-84L 168.001,76z"  />
<glyph unicode="&#xe012;" d="M 378,384L 42,384 C 18.9,384,0,365.1,0,342l0-364 c0-23.1, 18.9-42, 42-42l 336,0 c 23.1,0, 42,18.9, 42,42L 420,342 C 420,365.1, 401.1,384, 378,384z M 364-8L 56-8 
		L 56,328 l 308,0 L 364-8 zM 112,188L 308,188L 308,160L 112,160zM 112,132L 308,132L 308,104L 112,104zM 112,76L 308,76L 308,48L 112,48zM 112,244L 308,244L 308,216L 112,216z"  />
<glyph unicode="&#xe013;" d="M 392,216L 392,272 l-70.056,0 l 14,112l-56,0 l-14-112l-111.972,0 l 14,112l-56,0 l-14-112L0,272 l0-56 l 90.972,0 L 77,104L0,104 l0-56 l 70,0 l-14-112l 56,0 l 14,112l 111.972,0 l-14-112L 280-64 
		l 14,112l 98,0 l0,56 l-91,0 l 13.944,112L 392,216 z M 244.972,104L 133,104 l 13.972,112l 111.972,0 L 244.972,104z" horiz-adv-x="392"  />
<glyph unicode="&#xe00c;" d="M 392,300 L 56,300 L 56,20 L 392,20 L 392,300 Z M 448,356 L 448,356 L 448-36 L 0-36 L 0,356 L 448,356 ZM 364,48 L 84,48 L 84,104 L 168,244 L 283.063,104 L 364,160 L 364,132 ZM 280,230A42,42 2700 1 1 364,230A42,42 2700 1 1 280,230z"  />
<glyph unicode="&#xe014;" d="M 622.247,69.709 C 622.247,131.333 577.814,181.213 522.171,184.020 C 524.828,195.987 526.387,208.412 526.387,221.257 C 526.387,309.465 460.029,380.975 378.173,380.975 C 328.634,380.975 284.888,354.686 257.975,314.451 C 244.459,323.949 228.385,329.582 211.046,329.582 C 163.46,329.582 124.887,288.012 124.887,236.733 C 124.887,233.289 125.489,230.026 125.828,226.678 C 60.933,222.12 9.548,163.203 9.548,90.999 C 9.548,15.819 65.208-45.127 133.868-45.127 C 135.766-45.127 137.613-44.908 139.49-44.816 L 139.519-45.18 L 264.206-45.18 L 264.205,75.311 L 183.636,75.317 L 334.564,247.651 L 485.492,75.317 L 402.051,75.311 L 402.052-45.18 L 525.472-45.18 L 525.413-44.239 C 579.508-39.665 622.247,9.306 622.247,69.709 Z" horiz-adv-x="626.051"  />
<glyph unicode="&#xf088;" d="M 64,272q0,6.5 -4.75,11.25t-11.25,4.75t-11.25-4.75t-4.75-11.25t 4.75-11.25t 11.25-4.75t 11.25,4.75t 4.75,11.25zM 352,128q0,8.75 -5.375,20.25t-13.375,11.75q 3.75,4.25 6.25,11.875t 2.5,13.875q0,17.25 -13.25,29.75q 4.5,8 4.5,17.25t-4.375,18.375t-11.875,13.125q 1.25,7.5 1.25,14q0,21.25 -12.25,31.5t-34,10.25l-32,0 q-32.75,0 -85.5-18.25q-1.25-0.5 -7.25-2.625 t-8.875-3.125t-8.75-2.875t-9.5-2.75t-8.25-1.625t-7.875-0.75l-8,0 l0-160 l 8,0 q 4,0 8.875-2.25t 10-6.75t 9.625-8.875t 10-11t 8.625-10.625t 7.875-10.25t 5.75-7.5q 13.75-17 19.25-22.75q 10.25-10.75 14.875-27.375t 7.625-31.375t 9.5-21.25q 24,0 32,11.75t 8,36.25q0,14.75 -12,40.125t-12,39.875l 88,0 q 12.5,0 22.25,9.625t 9.75,22.375z M 384,127.75q0-25.75 -19-44.75t-45-19l-44,0 q 12-24.75 12-48q0-29.5 -8.75-46.5q-8.75-17.25 -25.5-25.375t-37.75-8.125q-12.75,0 -22.5,9.25q-8.5,8.25 -13.5,20.5t-6.375,22.625t-4.375,21.125t-7.75,16q-12,12.5 -26.75,31.75q-25.25,32.75 -34.25,38.75l-68.5,0 q-13.25,0 -22.625,9.375t-9.375,22.625l0,160 q0,13.25 9.375,22.625t 22.625,9.375 l 72,0 q 5.5,0 34.5,10q 32,11 55.75,16.5t 50,5.5l 28,0 q 35,0 56.625-19.75t 21.375-54l0-1.25 q 15-19.25 15-44.5q0-5.5 -0.75-10.75q 9.5-16.75 9.5-36q0-9 -2.25-17.25q 12.25-18.5 12.25-40.75z" horiz-adv-x="384"  />
<glyph unicode="&#xe015;" d="M 418.656,107.45l-38.685,34.496c-11.2,9.99-11.2,26.298,0,36.288l 38.685,34.474c 11.2,9.99, 8.198,19.286-6.653,20.698l-51.274,4.861
	c-14.851,1.411-22.848,14.179-17.741,28.381l 27.216,75.757c 5.107,14.202-1.142,19.376-13.866,11.491l-60.502-37.408
	c-12.723-7.885-29.165-3.584-36.534,9.565l-21.93,39.11c-7.347,13.149-19.533,13.216-27.037,0.157L 189.974,329.882
	C 182.47,316.822, 165.222,311.245, 151.648,317.494l-35.84,16.464C 102.211,340.186, 91.773,332.973, 92.579,317.875L 94.528,281.699
	c 0.806-15.075-10.326-30.621-24.73-34.496L 35.19,237.907C 20.787,234.010, 18.144,222.675, 29.344,212.685l 38.685-34.474c 11.2-9.968, 11.2-26.298,0-36.266
	L 29.344,107.494c-11.2-10.013-8.243-19.645, 6.563-21.437l 46.928-5.69c 14.806-1.837, 23.072-15.053, 18.346-29.366l-24.080-72.979
	c-4.726-14.358, 2.016-19.958, 14.963-12.432l 55.171,31.898c 12.97,7.526, 30.374,3.36, 38.707-9.139l 22.915-34.429
	c 8.31-12.566, 20.832-11.85, 27.754,1.523l 20.138,38.797c 6.966,13.395, 23.587,18.861, 36.938,12.163l 38.842-19.421
	c 13.395-6.698, 23.677,0.179, 22.87,15.277l-1.949,36.176c-0.806,15.098, 10.326,30.621, 24.73,34.518l 34.586,9.274
	C 427.213,86.147, 429.856,97.482, 418.656,107.45z M 246.4,66.032L 201.6,66.032 l0,47.040 l 44.8,0 L 246.4,66.032 z M 246.4,137.69L 201.6,137.69 l0,116.48 l 44.8,0 L 246.4,137.69 z"  />
<glyph unicode="&#xf087;" d="M 64,48q0,6.5 -4.75,11.25t-11.25,4.75t-11.25-4.75t-4.75-11.25t 4.75-11.25t 11.25-4.75t 11.25,4.75t 4.75,11.25zM 352,192q0,12.75 -9.75,22.375t-22.25,9.625l-88,0 q0,14.5 12,39.875t 12,40.125q0,24.5 -8,36.25t-32,11.75q-6.5-6.5 -9.5-21.25t-7.625-31.375t-14.875-27.375q-5.5-5.75 -19.25-22.75q-1-1.25 -5.75-7.5t-7.875-10.25t-8.625-10.625 t-10-11t-9.625-8.875t-10-6.75t-8.875-2.25l-8,0 l0-160 l 8,0 q 3.25,0 7.875-0.75t 8.25-1.625t 9.5-2.75t 8.75-2.875t 8.875-3.125t 7.25-2.625q 52.75-18.25 85.5-18.25l 30.25,0 q 48,0 48,41.75q0,6.5 -1.25,14q 7.5,4 11.875,13.125t 4.375,18.375t-4.5,17.25q 13.25,12.5 13.25,29.75q0,6.25 -2.5,13.875t-6.25,11.875q 8,0.25 13.375,11.75t 5.375,20.25zM 384,192.25 q0-22.25 -12.25-40.75q 2.25-8.25 2.25-17.25q0-19.25 -9.5-36q 0.75-5.25 0.75-10.75q0-25.25 -15-44.5q 0.25-34.75 -21.25-54.875t-56.75-20.125l-9,0 l-23.25,0 q-24,0 -47.375,5.625t-54.125,16.375q-29,10 -34.5,10l-72,0 q-13.25,0 -22.625,9.375t-9.375,22.625l0,160 q0,13.25 9.375,22.625t 22.625,9.375l 68.5,0 q 9,6 34.25,38.75q 14.5,18.75 26.75,32 q 6,6.25 8.875,21.375t 7.625,31.625t 15.5,27q 9.75,9.25 22.5,9.25q 21,0 37.75-8.125t 25.5-25.375t 8.75-46.5q0-23.25 -12-48l 44,0 q 26,0 45-19t 19-44.75z" horiz-adv-x="384"  />
<glyph unicode="&#xf077;" d="M 402.75,80q0-13.25 -9.25-22.5l-18.75-18.75q-9.5-9.5 -22.75-9.5q-13.5,0 -22.5,9.5l-121.5,121.25l-121.5-121.25q-9-9.5 -22.5-9.5t-22.5,9.5l-18.75,18.75q-9.5,9 -9.5,22.5q0,13.25 9.5,22.75l 162.75,162.75q 9.25,9.25 22.5,9.25q 13,0 22.75-9.25l 162.5-162.75q 9.5-9.5 9.5-22.75z" horiz-adv-x="416"  />
<glyph unicode="&#xf078;" d="M 402.75,208q0-13.25 -9.25-22.5l-162.75-162.75q-9.5-9.5 -22.75-9.5q-13.5,0 -22.5,9.5l-162.75,162.75q-9.5,9 -9.5,22.5q0,13.25 9.5,22.75l 18.5,18.75q 9.75,9.25 22.75,9.25q 13.25,0 22.5-9.25l 121.5-121.5l 121.5,121.5q 9.25,9.25 22.5,9.25q 13,0 22.75-9.25l 18.75-18.75q 9.25-9.75 9.25-22.75z" horiz-adv-x="416"  />
<glyph unicode="&#xf059;" d="M 224,40l0,48 q0,3.5 -2.25,5.75t-5.75,2.25l-48,0 q-3.5,0 -5.75-2.25t-2.25-5.75l0-48 q0-3.5 2.25-5.75t 5.75-2.25l 48,0 q 3.5,0 5.75,2.25t 2.25,5.75zM 288,208q0,22 -13.875,40.75t-34.625,29t-42.5,10.25q-60.75,0 -92.75-53.25q-3.75-6 2-10.5l 33-25q 1.75-1.5 4.75-1.5q 4,0 6.25,3q 13.25,17 21.5,23q 8.5,6 21.5,6q 12,0 21.375-6.5t 9.375-14.75 q0-9.5 -5-15.25t-17-11.25q-15.75-7 -28.875-21.625t-13.125-31.375l0-9 q0-3.5 2.25-5.75t 5.75-2.25l 48,0 q 3.5,0 5.75,2.25t 2.25,5.75q0,4.75 5.375,12.375t 13.625,12.375q 8,4.5 12.25,7.125t 11.5,8.75t 11.125,12t 7,15.125t 3.125,20.25zM 384,160q0-52.25 -25.75-96.375t-69.875-69.875t-96.375-25.75t-96.375,25.75t-69.875,69.875 t-25.75,96.375t 25.75,96.375t 69.875,69.875t 96.375,25.75t 96.375-25.75t 69.875-69.875t 25.75-96.375z" horiz-adv-x="384"  />
<glyph unicode="&#xf0ac;" d="M 192,352q 52.25,0 96.375-25.75t 69.875-69.875t 25.75-96.375t-25.75-96.375t-69.875-69.875t-96.375-25.75t-96.375,25.75t-69.875,69.875t-25.75,96.375t 25.75,96.375t 69.875,69.875t 96.375,25.75zM 260.5,221.75q-0.5-0.25 -2.375-2.375t-3.375-2.375q 0.5,0 1.125,1.25t 1.25,2.75t 0.875,1.75q 1.5,1.75 5.5,3.75q 3.5,1.5 13,3q 8.5,2 12.75-2.75 q-0.5,0.5 2.375,3.25t 3.625,3q 0.75,0.5 3.75,1.125t 3.75,1.875l 0.5,5.5q-3-0.25 -4.375,1.75t-1.625,5.25q0-0.5 -1.5-2q0,1.75 -1.125,2t-2.875-0.25t-2.25-0.25q-2.5,0.75 -3.75,1.875t-2,4.125t-1,3.75q-0.5,1.25 -2.375,2.625t-2.375,2.625q-0.25,0.5 -0.625,1.375t-0.75,1.625t-1,1.375t-1.375,0.625t-1.75-1.25t-1.875-2.5t-1.125-1.25q-0.75,0.5 -1.5,0.375t-1.125-0.25t-1.125-0.75t-1.25-0.875 q-0.75-0.5 -2.125-0.75t-2.125-0.5q 3.75,1.25 -0.25,2.75q-2.5,1 -4,0.75q 2.25,1 1.875,3t-2.125,3.5l 1.25,0 q-0.25,1 -2.125,2.125t-4.375,2.125t-3.25,1.5q-2,1.25 -8.5,2.375t-8.25,0.125q-1.25-1.5 -1.125-2.625t 1-3.5t 0.875-3.125q 0.25-1.5 -1.375-3.25t-1.625-3q0-1.75 3.5-3.875t 2.5-5.375q-0.75-2 -4-4t-4-3q-1.25-2 -0.375-4.625t 2.625-4.125 q 0.5-0.5 0.375-1t-0.875-1.125t-1.375-1t-1.625-0.875l-0.75-0.5q-2.75-1.25 -5.125,1.5t-3.375,6.5q-1.75,6.25 -4,7.5q-5.75,2 -7.25-0.25q-1.25,3.25 -10.25,6.5q-6.25,2.25 -14.5,1q 1.5,0.25 0,3.75q-1.75,3.75 -4.75,3q 0.75,1.5 1,4.375t 0.25,3.375q 0.75,3.25 3,5.75q 0.25,0.25 1.75,2.125t 2.375,3.375t 0.125,1.5q 8.75-1 12.5,2.75q 1.25,1.25 2.875,4.25t 2.625,4.25q 2.25,1.5 3.5,1.375t 3.625-1.375 t 3.625-1.25q 3.5-0.25 3.875,2.75t-1.875,5q 3-0.25 0.75,4.25q-1.25,1.75 -2,2.25q-3,1 -6.75-1.25q-2-1 0.5-2q-0.25,0.25 -2.375-2.625t-4.125-4.375t-4,1.25q-0.25,0.25 -1.375,3.375t-2.375,3.375q-2,0 -4-3.75q 0.75,2 -2.75,3.75t-6,2q 4.75,3 -2,6.75q-1.75,1 -5.125,1.25t-4.875-1q-1.25-1.75 -1.375-2.875t 1.25-2t 2.625-1.375t 2.875-1t 2.125-0.75 q 3.5-2.5 2-3.5q-0.5-0.25 -2.125-0.875t-2.875-1.125t-1.5-1q-0.75-1 0-3.5t-0.5-3.5q-1.25,1.25 -2.25,4.375t-1.75,4.125q 1.75-2.25 -6.25-1.5l-2.5,0.25q-1,0 -4-0.5t-5.125-0.25t-3.375,2q-1,2 0,5q 0.25,1 1,0.5q-1,0.75 -2.75,2.375t-2.5,2.125q-11.5-3.75 -23.5-10.25q 1.5-0.25 3,0.25q 1.25,0.5 3.25,1.625t 2.5,1.375q 8.5,3.5 10.5,1.75l 1.25,1.25q 3.5-4 5-6.25 q-1.75,1 -7.5,0.25q-5-1.5 -5.5-3q 1.75-3 1.25-4.5q-1,0.75 -2.875,2.5t-3.625,2.75t-3.75,1.25q-4,0 -5.5-0.25q-36.5-20 -58.75-55.5q 1.75-1.75 3-2q 1-0.25 1.25-2.25t 0.625-2.75t 2.875,0.75q 2.25-2 0.75-4.75q 0.25,0.25 11-6.75q 4.75-4.25 5.25-5.25q 0.75-2.75 -2.5-4.5q-0.25,0.5 -2.25,2.25t-2.25,1q-0.75-1.25 0.125-4.625t 2.625-3.125q-1.75,0 -2.375-4t-0.625-8.875 t-0.25-5.875l 0.5-0.25q-0.75-3 1.375-8.625t 5.375-4.875q-3.25-0.75 5-10.75q 1.5-2 2-2.25q 0.75-0.5 3-1.875t 3.75-2.5t 2.5-2.625q 1-1.25 2.5-5.625t 3.5-5.875q-0.5-1.5 2.375-5t 2.625-5.75q-0.25,0 -0.625-0.25t-0.625-0.25q 0.75-1.75 3.875-3.5t 3.875-3.25q 0.25-0.75 0.5-2.5t 0.75-2.75t 2-0.5q 0.5,5 -6,15.5q-3.75,6.25 -4.25,7.25q-0.75,1.25 -1.375,3.875 t-1.125,3.625q 0.5,0 1.5-0.375t 2.125-0.875t 1.875-1t 0.5-0.75q-0.75-1.75 0.5-4.375t 3-4.625t 4.25-4.75t 3-3.25q 1.5-1.5 3.5-4.875t0-3.375q 2.25,0 5-2.5t 4.25-5q 1.25-2 2-6.5t 1.25-6q 0.5-1.75 2.125-3.375t 3.125-2.375l 4-2t 3.25-1.75q 1.25-0.5 4.625-2.625t 5.375-2.875q 2.5-1 4-1t 3.625,0.625t 3.375,0.875q 3.75,0.5 7.25-3.75t 5.25-5.25 q 9-4.75 13.75-2.75q-0.5-0.25 0.125-1.875t 2-3.875t 2.25-3.625t 1.375-2.125q 1.25-1.5 4.5-3.75t 4.5-3.75q 1.5,1 1.75,2.25q-0.75-2 1.75-5t 4.5-2.5q 3.5,0.75 3.5,8q-7.75-3.75 -12.25,4.5q0,0.25 -0.625,1.375t-1,2.125t-0.625,2.125t0,1.875t 1.25,0.75q 2.25,0 2.5,0.875t-0.5,3.125t-1,3.25q-0.25,2 -2.75,5t-3,3.75q-1.25-2.25 -4-2t-4,2.25q0-0.25 -0.375-1.375t-0.375-1.625 q-3.25,0 -3.75,0.25q 0.25,0.75 0.625,4.375t 0.875,5.625q 0.25,1 1.375,3t 1.875,3.625t 1,3.125t-1.125,2.375t-4.375,0.625q-4.75-0.25 -6.5-5q-0.25-0.75 -0.75-2.625t-1.25-2.875t-2.25-1.75q-1.75-0.75 -6-0.5t-6,1.25q-3.25,2 -5.625,7.25t-2.375,9.25q0,2.5 0.625,6.625t 0.75,6.25t-1.375,6.125q 0.75,0.5 2.25,2.375t 2.5,2.625q 0.5,0.25 1.125,0.375t 1.125,0t 1,0.375t 0.75,1.5q-0.25,0.25 -1,0.75 q-0.75,0.75 -1,0.75q 1.75-0.75 7.125,0.375t 6.875-0.375q 3.75-2.75 5.5,0.5q0,0.25 -0.625,2.375t-0.125,3.375q 1.25-6.75 7.25-2.25q 0.75-0.75 3.875-1.25t 4.375-1.25q 0.75-0.5 1.75-1.375t 1.375-1.125t 1.25,0.125t 2.125,1.625q 2.5-3.5 3-6q 2.75-10 4.75-11q 1.75-0.75 2.75-0.5t 1.125,2.375t0,3.5t-0.375,3.125l-0.25,2l0,4.5 l-0.25,2q-3.75,0.75 -4.625,3t 0.375,4.625t 3.75,4.625q 0.25,0.25 2,0.875 t 3.875,1.625t 3.125,2q 5.25,4.75 3.75,8.75q 1.75,0 2.75,2.25q-0.25,0 -1.25,0.75t-1.875,1.25t-1.125,0.5q 2.25,1.25 0.5,4q 1.25,0.75 1.875,2.75t 1.875,2.5q 2.25-3 5.25-0.5q 1.75,2 0.25,4q 1.25,1.75 5.125,2.625t 4.625,2.375q 1.75-0.5 2,0.5t 0.25,3t 0.75,3q 1,1.25 3.75,2.25t 3.25,1.25l 4.25,2.75q 0.75,1 0,1q 4.5-0.5 7.75,2.75q 2.5,2.75 -1.5,5q 0.75,1.5 -0.75,2.375t-3.75,1.375q 0.75,0.25 2.875,0.125t 2.625,0.375 q 3.75,2.5 -1.75,4q-4.25,1.25 -10.75-3zM 219.75,2.5q 51.5,9 87.75,47.25q-0.75,0.75 -3.125,1.125t-3.125,0.875q-4.5,1.75 -6,2q 0.25,1.75 -0.625,3.25t-2,2.25t-3.125,2t-2.75,1.75q-0.5,0.5 -1.75,1.5t-1.75,1.375t-1.875,1.125t-2.125,0.5t-2.5-0.25l-0.75-0.25q-0.75-0.25 -1.375-0.625t-1.375-0.75t-1-0.75t0-0.625q-5.25,4.25 -9,5.5q-1.25,0.25 -2.75,1.375t-2.625,1.75t-2.5,0.375t-2.875-1.75 q-1.25-1.25 -1.5-3.75t-0.5-3.25q-1.75,1.25 0,4.375t 0.5,4.625q-0.75,1.5 -2.625,1.125t-3-1.125t-2.875-2.125t-2.25-1.625t-2.125-1.375t-2.125-1.875q-0.75-1 -1.5-3t-1.25-2.75q-0.5,1 -2.875,1.625t-2.375,1.375q 0.5-2.5 1-8.75t 1.25-9.5q 1.75-7.75 -3-12q-6.75-6.25 -7.25-10q-1-5.5 3-6.5q0-1.75 -2-5.125t-1.75-5.375q0-1.5 0.5-4z" horiz-adv-x="384"  />
<glyph unicode="&#xf141;" d="M 96,200l0-48 q0-10 -7-17t-17-7l-48,0 q-10,0 -17,7t-7,17l0,48 q0,10 7,17t 17,7l 48,0 q 10,0 17-7t 7-17zM 224,200l0-48 q0-10 -7-17t-17-7l-48,0 q-10,0 -17,7t-7,17l0,48 q0,10 7,17t 17,7l 48,0 q 10,0 17-7t 7-17zM 352,200l0-48 q0-10 -7-17t-17-7l-48,0  q-10,0 -17,7t-7,17l0,48 q0,10 7,17t 17,7l 48,0 q 10,0 17-7t 7-17z" horiz-adv-x="352"  />
<glyph unicode="&#xe016;" d="M 378,384 C 416.659,384 448,352.66 448,314 C 448,298.241 442.789,283.7 434,272 L 406,244 L 308,342 L 336,370 C 347.7,378.789 362.24,384 378,384 ZM 28,62L0-64l 126,28l 259,259L 287,321L 28,62z M 313.065,224.935l-196-196l-24.131,24.131l 196,196L 313.065,224.935z"  />
<glyph unicode="&#xe017;" d="M 224,113.43c 53.536,0, 98.358,18.189, 101.069,41.955c-7.952,22.333-16.643,46.682-25.178,70.627c-5.914-17.069-38.64-29.12-75.891-29.12
	S 154.045,208.922, 148.086,225.99C 139.552,202.045, 130.906,177.718, 122.931,155.363C 125.642,131.619, 170.442,113.43, 224,113.43z M 224,263.622
	c 25.155,0, 48.541,7.795, 55.395,19.891c-9.43,26.499-17.539,49.213-22.669,63.549C 253.344,356.627, 237.91,361.6, 224,361.6S 194.656,356.627, 191.274,347.085
	c-5.13-14.336-13.216-37.072-22.669-63.549C 175.459,271.418, 198.845,263.622, 224,263.622z M 420.672,91.322l-84.112,33.891l 9.699-27.037
	c-0.493-28.627-56.112-51.475-122.259-51.475s-121.766,22.848-122.237,51.475l 9.677,27.037L 27.328,91.322c-23.587-9.52-24.573-27.104-2.218-39.088
	l 158.189-84.829c 22.378-11.984, 59.002-11.984, 81.379,0l 158.189,84.829C 445.267,64.218, 444.259,81.802, 420.672,91.322z"  />
<glyph unicode="&#xf12a;" d="M 128,72l0-56 q0-6.5 -4.75-11.25t-11.25-4.75l-64,0 q-6.5,0 -11.25,4.75t-4.75,11.25l0,56 q0,6.5 4.75,11.25t 11.25,4.75l 64,0 q 6.5,0 11.25-4.75t 4.75-11.25zM 135.5,336l-7-192q-0.25-6.5 -5.125-11.25t-11.375-4.75l-64,0 q-6.5,0 -11.375,4.75t-5.125,11.25l-7,192q-0.25,6.5 4.375,11.25t 11.125,4.75l 80,0 q 6.5,0 11.125-4.75t 4.375-11.25z" horiz-adv-x="160"  />
<glyph unicode="&#xe018;" d="M 223.664,12.16L 223.664,97.907L 380.845,97.885L 380.845,222.25L 223.664,222.25L 223.664,307.84L 53.805,159.978 	z"  />
<glyph unicode="&#xe019;" d="M 224.336,307.84L 224.336,222.093L 67.155,222.115L 67.155,97.75L 224.336,97.75L 224.336,12.16L 394.195,160.022 	z"  />
<glyph unicode="&#xe01a;" d="M 224.196,74.852c-0.518,0-1.036,0-1.554,0c-122.948,0-222.39,29.862-222.418,52.794
	l-0.224,90.062c0,0.14, 0.056,0.266, 0.056,0.378c 20.244-9.604, 44.030-14.028, 58.254-16.674c 44.198-8.218, 102.578-12.754, 164.332-12.754l 1.554,0 
	c 62.146,0.070, 120.862,4.718, 165.382,13.076c 14.238,2.674, 37.94,7.126, 58.198,16.674c0-0.042,0-0.126,0-0.126l 0.238-90.062
	C 448.042,105.19, 347.872,75.020, 224.196,74.852z M 224.196,215.776c-0.518,0-1.036,0-1.554,0c-122.948,0-222.39,27.244-222.418,50.176
	l-0.224,76.076C-0.042,365.044, 100.184,383.846, 223.86,384c 0.546,0, 1.064,0, 1.61,0c 122.906,0, 222.278-18.48, 222.306-41.412l 0.238-76.076
	C 448.042,243.496, 347.872,215.944, 224.196,215.776z M 222.628,47.72l 1.554,0 c 62.146,0.084, 120.876,7.336, 165.382,15.694
	c 14.238,2.674, 37.94,7.126, 58.212,16.688l 0.224-102.144c 0.028-23.030-100.142-41.818-223.818-41.972c-0.532,0-1.036,0-1.582,0
	c-122.92,0-222.362,18.48-222.39,41.398L0,79.794c 20.244-9.618, 44.044-14.042, 58.296-16.688C 102.494,54.874, 160.86,47.72, 222.628,47.72z"  />
<glyph unicode="&#xe01b;" d="M0,216l 308,0 l0-56 L0,160 L0,216 z M0,300l 308,0 l0-56 L0,244 L0,300 z M0,132l 308,0 l0-56 L0,76 L0,132 z M0,48l 308,0 l0-56 L0-8 L0,48 z M 336,132l 56-84l 56,84L 336,132 z M 448,160
	l-56,84l-56-84L 448,160 z"  />
<glyph unicode="&#x20;" horiz-adv-x="224" />
</font>
</defs>
</svg>
